<?xml version="1.0" encoding="utf-8"?>
<!-- Generator: Adobe Illustrator 16.0.0, SVG Export Plug-In . SVG Version: 6.00 Build 0)  -->
<!DOCTYPE svg PUBLIC "-//W3C//DTD SVG 1.1//EN" "http://www.w3.org/Graphics/SVG/1.1/DTD/svg11.dtd">
<svg version="1.1" id="レイヤー_1" xmlns="http://www.w3.org/2000/svg" xmlns:xlink="http://www.w3.org/1999/xlink" x="0px"
	 y="0px" width="201px" height="117px" viewBox="0 0 201 117" enable-background="new 0 0 201 117" xml:space="preserve">
<g>
	<g>
		<g>
			<path fill="#231815" d="M7.847,116.836H6.585c-0.203-0.343-0.319-0.559-0.619-1.013l-3.507-5.274
				c-0.069-0.104-0.299-0.5-0.47-0.809c0.03,0.429,0.043,0.833,0.043,1.061v4.673c0,0.595,0.024,0.944,0.087,1.292l0.014,0.07h-1.16
				l0.013-0.07c0.062-0.333,0.087-0.696,0.087-1.292v-5.79c0-0.512-0.022-0.83-0.087-1.215l-0.012-0.069h1.217
				c0.155,0.294,0.306,0.545,0.608,1.013l3.451,5.174c0.103,0.159,0.354,0.57,0.588,0.979c-0.034-0.72-0.052-1.12-0.052-1.207
				v-4.642c0-0.547-0.021-0.873-0.086-1.248l-0.012-0.069h1.157l-0.013,0.069c-0.065,0.395-0.087,0.698-0.087,1.248v5.833
				c0,0.555,0.023,0.874,0.087,1.216L7.847,116.836L7.847,116.836z"/>
		</g>
		<g>
			<path fill="#231815" d="M18.519,116.836h-1.275l-0.011-0.047c-0.08-0.363-0.197-0.747-0.337-1.108l-0.567-1.41l-3.757,0.037
				l-0.514,1.375c-0.167,0.426-0.262,0.735-0.335,1.105l-0.009,0.048h-1.291l0.055-0.092c0.215-0.354,0.291-0.519,0.584-1.249
				l2.448-6.041c0.21-0.519,0.293-0.763,0.347-1.008l0.01-0.047h1.201l0.01,0.047c0.042,0.204,0.094,0.338,0.367,1.008l2.447,6.041
				c0.288,0.69,0.422,0.984,0.575,1.252L18.519,116.836L18.519,116.836z M12.92,113.433h3.114l-1.563-4.067
				c-0.027,0.081-0.049,0.145-0.062,0.193c-0.034,0.092-0.06,0.166-0.079,0.224c-0.02,0.06-0.035,0.104-0.046,0.126L12.92,113.433
				L12.92,113.433z"/>
		</g>
		<g>
			<path fill="#231815" d="M24.709,116.957c-1.059,0-1.887-0.271-2.529-0.826c-0.868-0.769-1.364-2.057-1.364-3.534
				c0-2.656,1.52-4.373,3.872-4.373c0.987,0,1.788,0.278,2.377,0.826c0.36,0.337,0.564,0.657,0.813,1.27l0.025,0.059l-0.967,0.322
				l-0.021-0.055c-0.385-1.048-1.097-1.536-2.239-1.536c-1.757,0-2.847,1.336-2.847,3.487c0,1.156,0.313,2.104,0.902,2.738
				c0.478,0.509,1.146,0.769,1.988,0.769c0.845,0,1.536-0.192,2.174-0.603l-0.027-2.092h-0.584c-0.555,0-0.808,0.012-1.115,0.064
				l-0.07,0.014v-1.028l0.068,0.012c0.334,0.058,0.623,0.065,1.182,0.065h0.316c0.52,0,0.821-0.011,1.154-0.044l0.074-0.008
				l-0.009,0.076c-0.064,0.451-0.077,0.714-0.077,1.228v1.007c0,0.516,0.012,0.775,0.075,1.206
				c-0.707,0.456-1.028,0.604-1.527,0.745C25.893,116.877,25.279,116.957,24.709,116.957L24.709,116.957z"/>
		</g>
		<g>
			<path fill="#231815" d="M38.424,116.836h-1.275l-0.01-0.047c-0.081-0.363-0.197-0.747-0.337-1.108l-0.566-1.41l-3.758,0.037
				l-0.514,1.375c-0.167,0.426-0.262,0.735-0.335,1.105l-0.01,0.048h-1.291l0.055-0.092c0.216-0.354,0.292-0.519,0.585-1.249
				l2.447-6.041c0.211-0.519,0.293-0.763,0.347-1.008l0.009-0.047h1.2l0.01,0.047c0.043,0.204,0.094,0.338,0.369,1.008l2.447,6.041
				c0.287,0.69,0.422,0.984,0.576,1.252L38.424,116.836L38.424,116.836z M32.826,113.433h3.114l-1.563-4.067
				c-0.027,0.081-0.049,0.145-0.062,0.193c-0.036,0.092-0.061,0.166-0.08,0.224c-0.019,0.06-0.034,0.104-0.046,0.126L32.826,113.433
				L32.826,113.433z"/>
		</g>
		<g>
			<path fill="#231815" d="M47.875,116.836h-1.262c-0.205-0.348-0.322-0.563-0.619-1.013l-3.506-5.274
				c-0.066-0.099-0.296-0.493-0.471-0.808c0.031,0.434,0.044,0.835,0.044,1.06v4.673c0,0.596,0.024,0.946,0.086,1.292l0.012,0.07
				h-1.158l0.012-0.07c0.062-0.333,0.087-0.696,0.087-1.292v-5.79c0-0.512-0.022-0.83-0.087-1.215l-0.012-0.069h1.217
				c0.154,0.294,0.307,0.545,0.608,1.013l3.452,5.174c0.103,0.159,0.354,0.57,0.589,0.979c-0.036-0.72-0.053-1.12-0.053-1.207
				v-4.642c0-0.547-0.023-0.873-0.087-1.248l-0.012-0.069h1.156l-0.011,0.069c-0.066,0.395-0.086,0.698-0.086,1.248v5.833
				c0,0.555,0.022,0.874,0.086,1.216L47.875,116.836L47.875,116.836z"/>
		</g>
		<g>
			<path fill="#231815" d="M54.741,117c-2.325,0-3.827-1.721-3.827-4.382c0-2.662,1.507-4.383,3.838-4.383
				c2.327,0,3.829,1.721,3.829,4.383C58.581,115.279,57.074,117,54.741,117L54.741,117z M54.751,109.121
				c-1.722,0-2.835,1.368-2.835,3.486c0,2.124,1.118,3.496,2.847,3.496c0.745,0,1.367-0.245,1.848-0.728
				c0.606-0.597,0.955-1.603,0.955-2.758c0-1.188-0.326-2.142-0.944-2.761C56.13,109.375,55.482,109.121,54.751,109.121
				L54.751,109.121z"/>
		</g>
		<g>
			<path fill="#231815" d="M70.507,116.989c-1.071,0-1.97-0.339-2.601-0.981c-0.771-0.772-1.195-1.97-1.195-3.368
				c0-1.415,0.448-2.641,1.262-3.446c0.65-0.629,1.507-0.947,2.544-0.947c1.053,0,1.889,0.304,2.489,0.903
				c0.394,0.383,0.604,0.725,0.865,1.4l0.024,0.061l-0.992,0.285l-0.019-0.053c-0.163-0.469-0.28-0.69-0.501-0.944
				c-0.427-0.502-1.065-0.767-1.846-0.767c-1.742,0-2.825,1.331-2.825,3.476c0,2.117,1.109,3.485,2.825,3.485
				c0.849,0,1.559-0.318,1.996-0.896c0.222-0.309,0.329-0.579,0.425-1.07l0.012-0.061L74,114.313l-0.017,0.063
				c-0.184,0.639-0.33,0.96-0.599,1.319C72.762,116.528,71.74,116.989,70.507,116.989L70.507,116.989z"/>
		</g>
		<g>
			<path fill="#231815" d="M78.148,116.836h-1.179l0.011-0.069c0.067-0.412,0.088-0.685,0.088-1.217v-5.866
				c0-0.535-0.021-0.818-0.088-1.215l-0.011-0.069h1.18l-0.014,0.07c-0.065,0.358-0.097,0.757-0.097,1.214v5.866
				c0,0.461,0.03,0.836,0.097,1.216L78.148,116.836L78.148,116.836z"/>
		</g>
		<g>
			<path fill="#231815" d="M84.779,116.836H83.61l0.014-0.07c0.06-0.311,0.086-0.679,0.086-1.227v-6.254h-1.645
				c-0.544,0-0.882,0.02-1.248,0.074l-0.067,0.012v-1.057l0.067,0.01c0.36,0.05,0.637,0.075,1.237,0.075h4.261
				c0.663,0,0.94-0.025,1.28-0.075l0.068-0.011v1.058l-0.068-0.012c-0.375-0.056-0.698-0.074-1.28-0.074h-1.634v6.254
				c0,0.537,0.022,0.835,0.086,1.227L84.779,116.836L84.779,116.836z"/>
		</g>
		<g>
			<path fill="#231815" d="M93.835,116.836h-1.188l0.011-0.069c0.064-0.396,0.086-0.715,0.086-1.217v-2.265l-2.502-3.842
				c-0.264-0.426-0.452-0.687-0.653-0.948l-0.074-0.096h1.312c0.144,0.304,0.252,0.509,0.585,1.034l1.84,2.962l1.839-2.962
				c0.293-0.484,0.43-0.729,0.505-0.992l0.013-0.042h1.379l-0.087,0.098c-0.172,0.197-0.395,0.515-0.661,0.944l-2.512,3.886
				l0.009,2.223c0,0.52,0.022,0.826,0.087,1.217L93.835,116.836L93.835,116.836z"/>
		</g>
		<g>
			<path fill="#231815" d="M112.126,116.836h-1.276l-0.011-0.047c-0.081-0.363-0.197-0.747-0.337-1.108l-0.567-1.41l-3.758,0.037
				l-0.513,1.375c-0.167,0.426-0.262,0.735-0.334,1.105l-0.01,0.048h-1.292l0.057-0.092c0.215-0.354,0.29-0.518,0.584-1.249
				l2.448-6.041c0.209-0.519,0.293-0.763,0.347-1.008l0.009-0.047h1.2l0.01,0.047c0.042,0.204,0.095,0.338,0.368,1.008l2.448,6.041
				c0.26,0.628,0.406,0.96,0.574,1.252L112.126,116.836L112.126,116.836z M106.527,113.433h3.113l-1.561-4.067l-0.004,0.01
				c-0.026,0.076-0.047,0.139-0.06,0.185c-0.034,0.091-0.059,0.163-0.077,0.219c-0.02,0.062-0.035,0.105-0.047,0.13L106.527,113.433
				L106.527,113.433z"/>
		</g>
		<g>
			<path fill="#231815" d="M121.544,116.836h-1.316l-0.005-0.055c-0.031-0.322-0.188-0.773-0.641-1.854
				c-0.627-1.482-1.029-1.889-1.879-1.889h-1.961v2.501c0,0.54,0.021,0.825,0.087,1.228l0.012,0.069h-1.157l0.012-0.07
				c0.064-0.392,0.086-0.687,0.086-1.216v-5.866c0-0.492-0.022-0.83-0.086-1.249l-0.011-0.072l0.073,0.004
				c0.381,0.021,0.686,0.033,1.188,0.033h2.402c1.623,0,2.517,0.768,2.517,2.16c0,0.725-0.221,1.267-0.676,1.654
				c-0.294,0.263-0.547,0.396-1.014,0.514c0.362,0.164,0.617,0.481,0.962,1.166c0.266,0.52,0.528,1.088,0.865,1.84
				c0.206,0.476,0.352,0.778,0.488,1.013L121.544,116.836L121.544,116.836z M115.743,112.163h2.53c0.47,0,0.903-0.164,1.192-0.452
				c0.268-0.259,0.396-0.605,0.396-1.063c0-0.899-0.526-1.374-1.523-1.374h-2.596V112.163L115.743,112.163z"/>
		</g>
		<g>
			<path fill="#231815" d="M127.706,116.836h-1.17l0.015-0.07c0.06-0.311,0.086-0.679,0.086-1.227v-6.254h-1.646
				c-0.543,0-0.881,0.02-1.246,0.074l-0.068,0.012v-1.057l0.067,0.01c0.359,0.05,0.637,0.075,1.236,0.075h4.261
				c0.664,0,0.94-0.025,1.279-0.075l0.068-0.011v1.058l-0.068-0.012c-0.374-0.056-0.697-0.074-1.279-0.074h-1.634v6.254
				c0,0.537,0.021,0.835,0.087,1.227L127.706,116.836L127.706,116.836z"/>
		</g>
		<g>
			<path fill="#231815" d="M136.157,116.979c-1.239,0-2.167-0.368-2.682-1.065c-0.29-0.392-0.413-0.734-0.523-1.47l-0.009-0.061
				l1.072-0.137l0.005,0.064c0.033,0.525,0.107,0.77,0.325,1.051c0.348,0.465,0.996,0.731,1.778,0.731
				c1.269,0,2.027-0.588,2.027-1.571c0-0.514-0.208-0.901-0.604-1.118c-0.348-0.203-0.448-0.231-1.786-0.531
				c-0.657-0.135-1.106-0.288-1.502-0.509c-0.694-0.393-1.046-0.992-1.046-1.781c0-1.412,1.12-2.325,2.856-2.325
				c1.105,0,1.957,0.358,2.462,1.03c0.251,0.328,0.367,0.605,0.491,1.185l0.014,0.061l-1.037,0.149l-0.011-0.055
				c-0.087-0.437-0.173-0.643-0.37-0.883c-0.337-0.4-0.88-0.612-1.57-0.612c-1.092,0-1.854,0.588-1.854,1.428
				c0,0.545,0.299,0.933,0.914,1.181c0.277,0.115,0.3,0.119,1.403,0.36l0.148,0.032c1.771,0.377,2.495,1.062,2.495,2.367
				C139.155,116.075,138.062,116.979,136.157,116.979L136.157,116.979z"/>
		</g>
		<g>
			<path fill="#231815" d="M151.134,116.989c-1.07,0-1.97-0.339-2.599-0.981c-0.771-0.772-1.195-1.969-1.195-3.368
				c0-1.438,0.436-2.629,1.262-3.446c0.65-0.629,1.507-0.947,2.543-0.947c1.053,0,1.891,0.304,2.491,0.903
				c0.393,0.383,0.603,0.725,0.865,1.4l0.023,0.061l-0.991,0.285l-0.02-0.053c-0.163-0.469-0.279-0.69-0.502-0.944
				c-0.426-0.502-1.063-0.767-1.845-0.767c-1.742,0-2.825,1.331-2.825,3.476c0,2.117,1.109,3.485,2.825,3.485
				c0.849,0,1.557-0.318,1.995-0.896c0.223-0.309,0.33-0.579,0.427-1.07l0.013-0.061l1.026,0.246l-0.017,0.063
				c-0.184,0.639-0.33,0.96-0.601,1.319C153.39,116.528,152.368,116.989,151.134,116.989L151.134,116.989z"/>
		</g>
		<g>
			<path fill="#231815" d="M163.353,116.922l-0.067-0.011c-0.367-0.058-0.662-0.075-1.216-0.075h-3.2
				c-0.522,0-0.828,0.01-1.199,0.031l-0.073,0.006l0.013-0.074c0.063-0.408,0.087-0.735,0.087-1.292v-5.834
				c0-0.465-0.021-0.753-0.089-1.238l-0.009-0.072l0.071,0.004c0.382,0.021,0.677,0.033,1.199,0.033h3.113
				c0.49,0,0.854-0.021,1.214-0.075l0.068-0.011v1.058l-0.067-0.012c-0.403-0.057-0.699-0.074-1.215-0.074h-3.305v2.682h2.813
				c0.463,0,0.792-0.021,1.216-0.076l0.067-0.009v1.057l-0.069-0.01c-0.35-0.053-0.62-0.076-1.214-0.076h-2.813v3.097h3.403
				c0.481,0,0.786-0.019,1.204-0.075l0.067-0.01V116.922L163.353,116.922z"/>
		</g>
		<g>
			<path fill="#231815" d="M173.252,116.836h-1.263c-0.204-0.348-0.322-0.563-0.617-1.013l-3.507-5.274
				c-0.066-0.099-0.297-0.493-0.471-0.808c0.03,0.434,0.044,0.835,0.044,1.06v4.673c0,0.596,0.023,0.946,0.086,1.292l0.013,0.07
				h-1.158l0.014-0.07c0.062-0.333,0.086-0.696,0.086-1.292v-5.79c0-0.512-0.022-0.83-0.086-1.215l-0.012-0.069h1.216
				c0.156,0.294,0.308,0.545,0.608,1.013l3.451,5.174c0.103,0.159,0.354,0.57,0.589,0.979c-0.034-0.72-0.052-1.12-0.052-1.207
				v-4.642c0-0.547-0.023-0.873-0.087-1.248l-0.013-0.069h1.156l-0.012,0.069c-0.064,0.395-0.086,0.698-0.086,1.248v5.833
				c0,0.555,0.022,0.874,0.086,1.216L173.252,116.836L173.252,116.836z"/>
		</g>
		<g>
			<path fill="#231815" d="M179.905,116.836h-1.17l0.014-0.07c0.061-0.311,0.088-0.679,0.088-1.227v-6.254h-1.646
				c-0.545,0-0.882,0.02-1.248,0.074l-0.067,0.012v-1.057l0.066,0.01c0.361,0.05,0.639,0.075,1.238,0.075h4.26
				c0.663,0,0.941-0.025,1.28-0.075l0.067-0.011v1.058l-0.067-0.012c-0.375-0.056-0.697-0.074-1.28-0.074h-1.633v6.254
				c0,0.537,0.021,0.835,0.086,1.227L179.905,116.836L179.905,116.836z"/>
		</g>
		<g>
			<path fill="#231815" d="M191.134,116.922l-0.067-0.011c-0.367-0.058-0.661-0.075-1.215-0.075h-3.201
				c-0.522,0-0.827,0.01-1.198,0.031l-0.072,0.006l0.011-0.074c0.064-0.408,0.086-0.735,0.086-1.292v-5.834
				c0-0.465-0.02-0.753-0.086-1.238l-0.01-0.072l0.071,0.004c0.382,0.021,0.676,0.033,1.198,0.033h3.113
				c0.489,0,0.854-0.021,1.215-0.075l0.068-0.011v1.058l-0.067-0.012c-0.403-0.057-0.699-0.074-1.216-0.074h-3.305v2.682h2.814
				c0.462,0,0.792-0.021,1.216-0.076l0.066-0.009v1.057l-0.068-0.01c-0.351-0.053-0.621-0.076-1.214-0.076h-2.814v3.097h3.403
				c0.482,0,0.787-0.019,1.205-0.075l0.066-0.01V116.922L191.134,116.922z"/>
		</g>
		<g>
			<path fill="#231815" d="M201,116.836h-1.315l-0.005-0.055c-0.032-0.322-0.188-0.773-0.642-1.854
				c-0.626-1.482-1.03-1.889-1.878-1.889h-1.962v2.501c0,0.54,0.021,0.825,0.087,1.228l0.012,0.069h-1.157l0.013-0.07
				c0.064-0.392,0.086-0.687,0.086-1.216v-5.866c0-0.492-0.024-0.83-0.086-1.249l-0.012-0.072l0.072,0.004
				c0.383,0.021,0.687,0.033,1.189,0.033h2.403c1.622,0,2.517,0.768,2.517,2.16c0,0.725-0.222,1.267-0.676,1.654
				c-0.294,0.263-0.548,0.396-1.014,0.514c0.361,0.164,0.616,0.481,0.962,1.166c0.265,0.52,0.526,1.088,0.864,1.84
				c0.208,0.476,0.353,0.778,0.489,1.013L201,116.836L201,116.836z M195.199,112.163h2.53c0.47,0,0.904-0.164,1.193-0.452
				c0.266-0.259,0.396-0.605,0.396-1.063c0-0.899-0.526-1.374-1.524-1.374h-2.596V112.163L195.199,112.163z"/>
		</g>
	</g>
	<g>
		<path fill="#D70C18" d="M178.379,24.645c-0.156-0.397-1.323-2.11-5.835-2.587c-22.187-2.354-27.062-21.291-40.739-22.037
			c-7.818-0.427-13.633,5.904-17.57,8.947c-2.259,1.747-2.734,3.448-2.832,4.541c-0.14,1.55,0.534,2.345,1.609,1.648
			c2.837-1.841,11.084-11.213,19.734-10.807c14.692,0.688,18.78,18.981,40.078,22.283C178.873,27.568,178.514,24.983,178.379,24.645
			z"/>
		<path fill="#BC0C16" d="M184.24,35.315c-0.458-1.065-1.774-2.609-6.239-3.047c-22.761-2.222-28.705-22.526-42.82-23.166
			c-10.11-0.458-16.586,7.936-23.396,12.837c-1.885,1.358-2.483,4.043-2.589,4.86c-0.236,1.821,1.272,2.125,2.962,0.976
			c5.753-3.918,14.08-14.194,24.073-13.66c15.476,0.828,19.811,19.892,42.117,23.498C184.309,38.571,184.502,35.926,184.24,35.315z"
			/>
		<path fill="#9E0810" d="M190.891,47.457c-0.717-1.508-2.325-3.075-6.806-3.474c-23.65-2.091-30.776-23.955-45.522-24.471
			c-10.825-0.367-16.975,8.454-28.491,16.323c-2.843,1.954-3.362,4.801-3.344,5.667c0.043,2.18,2.083,1.969,4.458,0.396
			c9.185-6.09,18.196-17.044,28.552-16.686c16.522,0.571,20.943,20.896,44.563,24.803C190.257,50.997,191.464,48.657,190.891,47.457
			z"/>
		<path fill="#740003" d="M198.346,60.979c-0.963-1.754-2.961-3.326-7.51-3.685c-24.834-1.958-33.162-25.505-48.722-25.933
			c-12.316-0.34-17.75,9.022-33.925,19.827c-3.83,2.556-4.189,5.685-4.208,6.547c-0.057,2.613,3.106,1.813,6.178-0.202
			c12.534-8.213,21.863-20.146,33.269-19.814c17.752,0.518,22.427,22.043,47.656,26.255
			C197.105,64.979,199.308,62.735,198.346,60.979z"/>
		<path fill="#740003" d="M6.937,58.323c3.75-3.819,16.645-15.038,27.903-15.938c22.484-1.794,30.563,25.868,59.225,17.135
			c4.146-1.263,4.69,0.731,4.333,2.607c-0.494,2.606-3.914,4.651-8.692,5.563c-23.709,4.523-35.545-19.958-56.791-18.713
			c-11.436,0.67-20.997,9.078-27.651,14.624C2.319,66.056,4.707,60.592,6.937,58.323z"/>
		<path fill="#9E0810" d="M14.168,44.977c3.498-3.612,15.546-13.864,26.356-14.679c21.009-1.589,28.47,26.22,56.466,14.92
			c3.971-1.589,4.517-0.301,4.197,1.591c-0.396,2.34-3.096,4.288-7.175,5.558C69.629,59.961,58.604,35.18,38.903,36.208
			C27.91,36.776,18.82,44.493,12.478,49.882C9.608,52.319,11.963,47.258,14.168,44.977z"/>
		<path fill="#BC0C16" d="M20.726,32.969c3.263-3.406,14.525-12.69,24.939-13.421c19.639-1.386,26.52,26.573,53.989,12.704
			c3.814-1.912,4.363-1.334,4.078,0.577c-0.305,2.072-2.273,4.03-5.693,5.554C72.946,49.557,62.595,23.963,44.338,24.775
			c-10.605,0.467-19.265,7.494-25.332,12.724C16.2,39.92,18.531,35.262,20.726,32.969z"/>
		<path fill="#D70C18" d="M26.662,22.153c3.04-3.2,13.556-11.515,23.616-12.165c18.343-1.182,24.668,26.928,51.715,10.489
			c3.674-2.234,4.219-2.365,3.979-0.436c-0.225,1.803-1.417,3.845-4.234,5.546c-25.524,15.418-35.642-12.121-52.497-11.05
			c-10.245,0.651-17.834,6.446-24.335,11.771C22.078,28.627,24.471,24.458,26.662,22.153z"/>
	</g>
	<g>
		<g>
			<path fill="#231815" d="M49.439,100.932c-0.544,0-1.107-0.019-2.084-0.11c-0.08-0.678-0.149-0.985-0.347-1.513
				c1.301,0.197,1.969,0.276,2.565,0.276c0.714,0,0.859-0.087,0.859-0.505v-8.857l-1.845,0.013c-0.794,0-1.337,0.019-1.923,0.111
				l-0.016-1.515c0.559,0.072,0.989,0.099,1.939,0.099h3.582c-1.323-1.383-2.464-2.311-4.373-3.519l0.87-0.962
				c1.141,0.749,1.595,1.088,2.393,1.726c1.002-0.855,1.8-1.686,2.733-2.868l-4.735,0.021c-0.757,0-1.343,0.02-1.924,0.112
				l-0.015-1.494c0.543,0.072,1.027,0.1,2.006,0.1h4.163c0.867,0,1.305-0.023,1.678-0.088l0.818,0.923
				c-0.202,0.219-0.202,0.219-1.074,1.295c-0.778,0.979-1.515,1.741-2.711,2.806c0.404,0.344,0.607,0.523,1.087,0.952l0.167,0.149
				l-0.827,0.87l1.87-0.022c0.864,0,1.303-0.024,1.678-0.09l0.75,0.925c-1.451,2.448-1.865,3.029-3.157,4.457
				c-0.389-0.348-0.633-0.508-1.134-0.781c1.199-1.159,1.682-1.758,2.57-3.226l-3.168,0.02l0.013,9.024
				C51.847,100.558,51.307,100.932,49.439,100.932L49.439,100.932z M36.471,100.15l-0.003-0.013l-0.357-1.593
				c1.15-0.016,2.203-0.131,4.711-0.532l-0.011-3.147l-2.227,0.013c-0.792,0-1.335,0.018-1.945,0.111l-0.015-1.47
				c0.575,0.08,1.153,0.1,1.96,0.1h2.24l-0.014-2.5l-1.801,0.014c-1.004,0-1.621,0.027-2.057,0.09
				c0.047-0.49,0.075-1.146,0.075-2.145v-5.045c0-0.958-0.025-1.519-0.089-2.062c0.639,0.047,1.261,0.074,2.094,0.074h5.016
				c0.994,0,1.502-0.023,2.013-0.088c-0.031,0.52-0.053,1.155-0.053,2.075v5.091c0,0.996,0.021,1.582,0.067,2.084
				c-0.43-0.048-1.026-0.075-2.005-0.075H42.1l0.013,2.498l2.248-0.012c0.925,0,1.361-0.026,1.946-0.112l0.015,1.469
				c-0.6-0.073-1.036-0.098-1.961-0.098H42.1l0.013,2.946c1.351-0.251,2.217-0.427,4.351-0.932l0.037,1.245
				c-3.24,0.778-5.177,1.161-8.293,1.652c-0.841,0.135-1.125,0.202-1.724,0.356L36.471,100.15L36.471,100.15z M42.113,87.118v2.835
				l2.651-0.013l-0.013-2.836L42.113,87.118L42.113,87.118z M38.285,87.118v2.835l2.54-0.013l-0.014-2.836L38.285,87.118
				L38.285,87.118z M42.113,83.283v2.656l2.651-0.013l-0.013-2.655L42.113,83.283L42.113,83.283z M38.285,83.283v2.656l2.54-0.013
				l-0.014-2.655L38.285,83.283L38.285,83.283z"/>
		</g>
		<g>
			<path fill="#231815" d="M0.899,101.055l-0.472-1.582c0.78-0.059,0.95-0.097,3.036-0.555l0.51-0.111l-0.01-6.558L2.23,92.262
				c-0.86,0-1.501,0.038-2.213,0.134L0,90.881c0.548,0.076,1.293,0.121,2.23,0.121h1.746l-0.013-6.917
				c0-1.235-0.024-1.59-0.089-2.218c0.634,0.071,1.178,0.097,2.342,0.097h9.537c1.216,0,1.817-0.019,2.393-0.134l0.015,1.515
				c-0.699-0.071-1.252-0.099-2.386-0.099H5.431l0.014,1.714l9.635-0.014c0.934,0,1.604-0.033,2.169-0.111l0.016,1.47
				c-0.645-0.077-1.356-0.121-2.185-0.121H5.431l0.014,1.76l9.635-0.014c1.026,0,1.674-0.039,2.169-0.135l0.016,1.495
				c-0.716-0.085-1.325-0.123-2.185-0.123H5.431l0.014,1.849l12.322-0.014c0.898,0,1.526-0.039,2.17-0.135l0.016,1.517
				c-0.611-0.08-1.278-0.122-2.119-0.122H9.595c0.786,1.439,1.431,2.207,2.895,3.408c1.379-0.925,2.848-2.264,3.475-3.182
				l1.338,0.804c-0.109,0.133-0.109,0.133-0.402,0.379c-0.026,0.041-0.073,0.083-0.131,0.137l-0.114,0.109
				c-1.396,1.286-2.051,1.802-3.182,2.515c2.065,1.339,4.29,2.271,6.8,2.824c-0.333,0.522-0.53,0.9-0.772,1.519
				c-3.433-0.975-5.885-2.235-7.969-4.076c-1.488-1.269-2.474-2.556-3.405-4.443l-2.698,0.007l0.014,6.199
				c2.097-0.554,3.334-0.938,4.885-1.538l0.063,1.381c-2.149,0.819-4.217,1.419-8.518,2.48l-0.174,0.05
				c-0.233,0.066-0.446,0.129-0.788,0.219L0.899,101.055L0.899,101.055z"/>
		</g>
		<g>
			<path fill="#231815" d="M82.885,101.296h-1.784c0.099-0.863,0.145-1.569,0.145-2.458v-8.925l-5.294,0.014l0.014,6.737
				c0,0.999,0.042,1.745,0.135,2.419l-1.782,0.014c0.083-0.778,0.121-1.48,0.121-2.433v-6.28c0-0.744-0.027-1.292-0.09-1.836
				c0.646,0.05,1.228,0.074,2.163,0.074h4.746l-0.012-0.62c0-0.661-0.019-1.186-0.112-1.77l1.691-0.015
				c-0.062,0.463-0.099,1.064-0.099,1.807v0.61l5.293-0.013c0.908,0,1.463-0.023,2.125-0.091c-0.051,0.555-0.075,1.063-0.075,1.831
				v6.458c0,1.471-0.473,1.852-2.298,1.852c-0.91,0-1.284-0.021-2.329-0.089c-0.081-0.621-0.178-0.998-0.392-1.511
				c0.991,0.13,1.872,0.206,2.632,0.206c0.703,0,0.884-0.127,0.884-0.614v-6.751l-5.854,0.014l0.013,8.911
				c0,0.95,0.048,1.704,0.157,2.443L82.885,101.296L82.885,101.296z M92.331,85.689l-0.015-0.002
				c-0.539-0.082-1.15-0.135-2.527-0.135H74.833c-1.057,0-1.8,0.04-2.483,0.135l-0.015-1.627c0.747,0.099,1.474,0.144,2.521,0.144
				h6.403l-0.012-1.354c0-0.665-0.061-1.394-0.157-1.904l1.804-0.016c-0.097,0.563-0.144,1.132-0.144,1.92v1.368l7.016-0.014
				c1.131,0,1.894-0.047,2.551-0.157L92.331,85.689L92.331,85.689z"/>
		</g>
		<g>
			<path fill="#231815" d="M126.167,101.221l-0.009-0.011c-0.742-1.053-0.952-1.333-1.677-2.196
				c-3.288,0.49-7.694,0.905-12.078,1.147c-1.724,0.092-2.209,0.137-2.799,0.225l-0.305-1.647c0.482,0.029,0.957,0.053,1.423,0.053
				c0.241,0,0.492-0.012,0.99-0.031l0.935-0.037c1.385-1.96,2.024-3.059,2.967-5.105l-4.601,0.02c-0.897,0-1.608,0.041-2.303,0.134
				l-0.016-1.583c0.664,0.079,1.374,0.122,2.318,0.122h15.045c0.957,0,1.646-0.041,2.303-0.135l0.016,1.582
				c-0.623-0.077-1.377-0.12-2.318-0.12h-8.73c-1.215,2.382-1.684,3.18-2.944,5.018c4.286-0.236,6.419-0.416,9.12-0.783
				c-0.981-1.021-1.441-1.463-2.738-2.601l1.167-0.761c2.391,2.138,3.632,3.431,5.546,5.765L126.167,101.221L126.167,101.221z
				 M125.781,89.669l-0.015-0.002c-0.726-0.097-1.353-0.135-2.236-0.135h-10.187c-0.936,0-1.703,0.047-2.282,0.135l-0.014-1.583
				c0.69,0.084,1.331,0.121,2.296,0.121h10.187c0.966,0,1.654-0.041,2.236-0.135L125.781,89.669L125.781,89.669z M122.425,87.089
				h-1.583c0.053-0.494,0.077-0.902,0.077-1.517v-0.719l-5.113,0.014l0.012,0.705c0,0.652,0.022,1.032,0.09,1.501l-1.58,0.016
				c0.053-0.488,0.077-0.902,0.077-1.493v-0.742l-3.346,0.014c-1.073,0-1.751,0.019-2.484,0.112l-0.014-1.538
				c0.73,0.082,1.45,0.122,2.498,0.122h3.358l-0.013-0.749c0-0.562-0.05-1.14-0.134-1.591l1.668-0.015
				c-0.076,0.535-0.121,1.056-0.121,1.605v0.763l5.113-0.014l-0.012-0.749c0-0.541-0.043-1.03-0.134-1.591l1.668-0.015
				c-0.079,0.55-0.121,1.041-0.121,1.605v0.763l3.48-0.014c1.242,0,1.9-0.054,2.506-0.136l0.014,1.54
				c-0.746-0.082-1.432-0.101-2.52-0.101h-3.493l0.013,0.729c0,0.621,0.022,0.979,0.091,1.478L122.425,87.089L122.425,87.089z"/>
		</g>
		<g>
			<path fill="#231815" d="M148.043,101.148h-1.649c0.103-0.756,0.12-1.401,0.12-2.658v-5.137c0-0.88,0.022-1.548,0.067-2.624
				c-0.569,0.801-1.073,1.336-1.902,2.052c-0.235-0.478-0.415-0.802-0.803-1.258c1.412-1.067,2.49-2.233,3.604-3.919
				c0.407-0.623,0.776-1.369,0.984-1.991l1.317,0.822l-0.164,0.285c-0.184,0.29-0.383,0.603-0.57,0.943
				c-0.232,0.383-0.794,1.218-1.144,1.684l0.003,9.164c0,1.229,0.021,1.936,0.134,2.621L148.043,101.148L148.043,101.148z
				 M155.197,101.081h-1.627c0.067-0.743,0.12-1.447,0.12-2.524V86.851l-1.621,0.014c-0.832,0-1.223,0.024-1.744,0.111l-0.014-1.493
				c0.528,0.074,0.983,0.1,1.96,0.1h1.433l-0.014-2.296c0-0.89-0.049-1.445-0.134-2.107l1.625-0.015
				c-0.073,0.666-0.121,1.194-0.121,2.122v2.308l1.264-0.012c0.948,0,1.38-0.024,1.922-0.112l0.015,1.492
				c-0.535-0.073-0.926-0.098-1.758-0.098h-1.456l0.014,11.692c0,1.121,0.049,1.769,0.134,2.511L155.197,101.081L155.197,101.081z
				 M160.569,100.835c-0.592,0-1.55-0.049-2.038-0.09c-0.056-0.581-0.141-1-0.302-1.466c0.906,0.152,1.734,0.229,2.697,0.229
				c0.584,0,0.726-0.096,0.726-0.48v-10.63l-1.127,0.014c-0.831,0-1.197,0.024-1.7,0.112l-0.016-1.516
				c0.499,0.075,0.864,0.1,1.716,0.1h3.044c0.896,0,1.285-0.024,1.812-0.112l0.014,1.515c-0.532-0.072-0.938-0.099-1.825-0.099
				h-0.493l0.014,10.64c0,0.853-0.207,1.355-0.635,1.536C162.095,100.744,161.409,100.835,160.569,100.835L160.569,100.835z
				 M150.285,98.577l-0.014-0.009c-0.405-0.293-0.718-0.495-1.207-0.718c1.111-2.527,1.649-5.318,1.738-9.073l1.313,0.123
				c-0.253,4.33-0.785,7.125-1.823,9.662L150.285,98.577L150.285,98.577z M157.834,97.431l-0.002-0.017
				c-0.384-3.476-0.808-5.585-1.679-8.361l1.194-0.377c0.942,3.116,1.4,5.199,1.831,8.265L157.834,97.431L157.834,97.431z
				 M144.981,86.534l-0.009-0.014c-0.25-0.478-0.495-0.785-0.87-1.095c1.917-1.383,3.494-3.099,4.115-4.502l1.34,0.735
				c-0.287,0.355-0.287,0.355-0.96,1.253c-0.905,1.212-2.186,2.495-3.605,3.612L144.981,86.534L144.981,86.534z M157.438,84.964
				l-0.007-0.015c-0.64-1.259-1.005-1.816-1.857-2.846l1.034-0.602c0.85,1.022,1.271,1.638,1.898,2.741L157.438,84.964
				L157.438,84.964z M164.993,83.951l-0.016-0.003c-0.523-0.075-1.074-0.112-1.677-0.112h-2.239c-0.563,0-1.104,0.037-1.654,0.112
				l-0.014-1.517c0.469,0.061,1.064,0.101,1.69,0.101h2.217c0.626,0,1.222-0.04,1.677-0.113L164.993,83.951L164.993,83.951z"/>
		</g>
		<g>
			<path fill="#231815" d="M192.212,101.4h-1.491c0.071-0.573,0.099-1.081,0.099-2.189V88.648c0-0.717,0-0.985-0.021-1.524
				l-1.196,0.012c0.033-0.434,0.055-0.833,0.055-1.313v-1.245c-0.405,0.432-0.626,0.735-0.805,1.139
				c-1.477-1.232-2.256-2.077-3.113-3.339c-1.394,1.96-2.548,3.139-4.726,4.845L181,87.234l-0.007-0.018
				c-0.239-0.587-0.417-0.885-0.758-1.272c1.31-0.894,1.884-1.368,2.932-2.44c0.824-0.869,1.406-1.653,1.835-2.463l1.354-0.008
				c0.655,1.165,1.731,2.311,3.301,3.507v-0.152c0-0.565-0.021-0.961-0.068-1.366c0.62,0.033,1.203,0.053,2.096,0.053h2.35
				l-0.014-0.526c0-0.551-0.036-0.988-0.134-1.567l1.67-0.014c-0.1,0.474-0.122,0.886-0.122,1.581v0.54l2.563-0.014
				c0.861,0,1.681-0.037,2.507-0.112c-0.031,0.438-0.054,0.935-0.054,1.492v1.323c0,0.604,0.022,1.052,0.067,1.367l-1.424,0.015
				l-0.013-2.86l-8.091,0.014l0.013,2.115c0.444,0.033,0.992,0.054,1.712,0.054h4.097c1.05,0,1.633-0.024,2.013-0.089
				c-0.052,0.547-0.074,0.998-0.074,1.741v2.195c0,0.851,0.022,1.282,0.088,1.658c-0.453-0.047-1.035-0.074-1.96-0.074h-4.702
				l0.014,2.251l5.696-0.012c0.896,0,1.394-0.023,1.901-0.091c-0.033,0.615-0.052,1.16-0.052,1.898v3.183
				c0,1.056,0.024,1.686,0.089,2.174l-1.469,0.017l-0.013-1.246l-6.144,0.012L192.212,101.4L192.212,101.4z M180.952,100.707
				l-0.004-0.013l-0.427-1.435l0.18-0.039c0.38-0.049,0.571-0.072,1.398-0.27l-0.011-10.034c0-1.106-0.02-1.521-0.067-2.084
				c0.462,0.033,0.964,0.055,1.692,0.055h1.209l-0.013-0.841c0-0.592-0.028-0.92-0.112-1.343l1.491-0.016
				c-0.081,0.416-0.1,0.796-0.1,1.358v0.853l0.905-0.012c0.937,0,1.476-0.027,1.855-0.091c-0.024,0.542-0.052,1.063-0.052,1.896
				v3.453c0,0.949,0.025,1.475,0.066,2.017c-0.395-0.05-0.888-0.075-1.714-0.075h-3.804l0.012,4.563
				c1.647-0.447,2.303-0.647,3.677-1.134c-0.164-0.25-0.276-0.428-0.365-0.563l-0.051-0.085c-0.365-0.609-0.464-0.773-0.934-1.419
				l1.101-0.58c1.056,1.415,2.194,3.219,3.063,4.828l-1.214,0.779c-0.428-0.939-0.561-1.202-0.958-1.866
				c-1.113,0.426-3.251,1.077-6.164,1.891c-0.123,0.046-0.173,0.06-0.338,0.108L180.952,100.707L180.952,100.707z M192.189,95.411
				v3.463l6.166-0.013l-0.013-3.463L192.189,95.411L192.189,95.411z M183.458,90.926v2.027l4.173-0.013l-0.012-2.026L183.458,90.926
				L183.458,90.926z M192.212,87.673v3.062l5.18-0.014l-0.013-3.06L192.212,87.673L192.212,87.673z M183.458,88.012v1.825
				l4.173-0.014l-0.012-1.825L183.458,88.012L183.458,88.012z"/>
		</g>
	</g>
</g>
</svg>
